<?xml version="1.0" standalone="no"?>
<!DOCTYPE svg PUBLIC "-//W3C//DTD SVG 20010904//EN"
 "http://www.w3.org/TR/2001/REC-SVG-20010904/DTD/svg10.dtd">
<svg version="1.0" xmlns="http://www.w3.org/2000/svg"
 width="600.000000pt" height="600.000000pt" viewBox="0 0 600.000000 600.000000"
 preserveAspectRatio="xMidYMid meet">

<g transform="translate(0.000000,600.000000) scale(0.100000,-0.100000)"
fill="#000000" stroke="none">
<path d="M2794 4234 c-248 -41 -474 -157 -660 -337 -513 -495 -513 -1299 0
-1794 488 -472 1244 -472 1732 0 501 483 515 1263 31 1763 -192 199 -431 325
-700 369 -112 18 -293 18 -403 -1z m376 -119 c363 -55 674 -282 843 -615 150
-297 154 -671 11 -976 -160 -341 -483 -584 -854 -640 -487 -73 -958 172 -1183
616 -150 297 -154 671 -11 976 80 171 240 359 390 459 240 160 521 223 804
180z"/>
<path d="M2660 3646 c0 -2 -43 -239 -96 -527 -117 -647 -124 -681 -124 -696 0
-10 30 -13 119 -13 105 0 120 2 125 18 3 9 17 82 30 162 14 80 31 173 37 208
l11 62 93 0 93 0 89 -222 88 -223 138 -3 c75 -1 137 -1 137 1 0 1 -23 54 -51
117 -148 333 -159 361 -141 366 138 44 241 126 289 230 71 156 41 318 -78 428
-99 92 -118 96 -464 96 -162 0 -295 -2 -295 -4z m552 -244 c51 -32 82 -98 73
-158 -8 -58 -71 -127 -130 -143 -22 -6 -109 -11 -192 -11 -134 0 -153 2 -153
16 0 19 49 292 56 312 3 11 36 13 157 10 138 -3 155 -5 189 -26z"/>
</g>
</svg>
