<svg width="1080" height="1080" viewBox="0 0 1080 1080" fill="none" xmlns="http://www.w3.org/2000/svg">
<rect width="1080" height="1080" rx="540" fill="#7B0321"/>
<path d="M365.004 539.994L363.833 540L365.004 540.006C268.352 540.006 190 618.358 190 715.01H365.001L365.001 890C461.592 890 539.905 811.745 540.001 715.177C540.096 811.745 618.41 890 715.001 890V715.01L890 715.01C890 618.358 811.648 540.006 714.996 540.006L716.167 540L714.996 539.994C811.648 539.994 890 461.642 890 364.99L715.001 364.99L715.001 190C618.404 190 540.086 268.265 540.001 364.842C539.915 268.265 461.598 190 365.001 190L365.001 364.99L190 364.99C190 461.642 268.352 539.994 365.004 539.994Z" stroke="#F4F1EB" stroke-width="40"/>
</svg>
